inDegrees=no
num_controls=7
num_derivatives=13
num_iterations=76
num_multipliers=7
num_parameters=0
num_slacks=7
num_states=26
objective=0.445081
objective_accelerations=0.058449
objective_balance=0.002910
objective_effort=0.022381
objective_height=0.355920
objective_ligament=0.005421
solver_duration=1098.121552
status=Solve_Succeeded
success=true
DataType=double
version=3
OpenSimVersion=4.5
endheader
time	/jointset/ground_pelvis/pelvis_tilt/value	/jointset/ground_pelvis/pelvis_tx/value	/jointset/ground_pelvis/pelvis_ty/value	/jointset/hip_l/hip_flexion_l/value	/jointset/hip_l/hip_adduction_l/value	/jointset/hip_l/hip_rotation_l/value	/jointset/back/lumbar_extension/value	/jointset/patellofemoral_l/patellar_flexion_l/value	/jointset/knee_l/knee_flexion_l/value	/jointset/knee_l/knee_adduction_l/value	/jointset/knee_l/knee_rotation_l/value	/jointset/ankle_l/ankle_angle_l/value	/jointset/subtalar_l/subtalar_angle_l/value	/jointset/ground_pelvis/pelvis_tilt/speed	/jointset/ground_pelvis/pelvis_tx/speed	/jointset/ground_pelvis/pelvis_ty/speed	/jointset/hip_l/hip_flexion_l/speed	/jointset/hip_l/hip_adduction_l/speed	/jointset/hip_l/hip_rotation_l/speed	/jointset/back/lumbar_extension/speed	/jointset/patellofemoral_l/patellar_flexion_l/speed	/jointset/knee_l/knee_flexion_l/speed	/jointset/knee_l/knee_adduction_l/speed	/jointset/knee_l/knee_rotation_l/speed	/jointset/ankle_l/ankle_angle_l/speed	/jointset/subtalar_l/subtalar_angle_l/speed	/forceset/tau_hip_flexion_l	/forceset/tau_hip_adduction_l	/forceset/tau_hip_rotation_l	/forceset/tau_knee_flexion_l	/forceset/tau_ankle_angle_l	/forceset/tau_subtalar_angle_l	/forceset/tau_lumbar_extension	lambda_cid13_p0	lambda_cid13_p1	lambda_cid13_p2	lambda_cid13_p3	lambda_cid13_p4	lambda_cid13_p5	lambda_cid14_p0	/jointset/ground_pelvis/pelvis_tilt/accel	/jointset/ground_pelvis/pelvis_tx/accel	/jointset/ground_pelvis/pelvis_ty/accel	/jointset/hip_l/hip_flexion_l/accel	/jointset/hip_l/hip_adduction_l/accel	/jointset/hip_l/hip_rotation_l/accel	/jointset/back/lumbar_extension/accel	/jointset/patellofemoral_l/patellar_flexion_l/accel	/jointset/knee_l/knee_flexion_l/accel	/jointset/knee_l/knee_adduction_l/accel	/jointset/knee_l/knee_rotation_l/accel	/jointset/ankle_l/ankle_angle_l/accel	/jointset/subtalar_l/subtalar_angle_l/accel	gamma_cid13_p0	gamma_cid13_p1	gamma_cid13_p2	gamma_cid13_p3	gamma_cid13_p4	gamma_cid13_p5	gamma_cid14_p0
0.5	-0.3068203091351715	-0.02309780298072763	0.7591830732443839	1.068566445637952	-0.4385662943242323	-0.2117906933910752	-0.2541630809275729	0.8477104139821267	0.8477104139818196	-0.1163479044949862	-0.1569530114534256	0.1513491449475981	-0.01051482790446604	-0.6850252431850996	-0.1622696088811654	-0.5381069878599901	2.378446020821043	-0.2102825382419649	0.7572322742659413	-0.1161255865890666	2.09291903626463	2.092919036264888	0.158188971445119	-0.0920450867907687	0.5846239936913382	0.06800699605715144	-0.1517395161364747	0.03251736905044157	-0.01257937152816627	-0.2384004741615633	0.06955835300987424	0.02826023458547721	0.1561159223828654	-10.4686135487904	-13.17211871345089	4.884311114984819	-8.267056221761194	-522.5008710382255	-51.5350548958366	-23.15354234100972	0.7059599301329541	0.6156827518586019	-0.4690171492589422	-1.362627928395537	0.7205175018262679	-0.2687521175467887	1.066546357017219	-1.361132468444885	-1.361132468444869	0.08702199051155279	0.1686494534026318	-0.5182122014092974	0.5647519672169161	-6.405928482730024e-07	-2.124137891715881e-07	3.708408645721886e-06	2.622657483585809e-07	-7.453827310772832e-07	-9.976547723819507e-08	-5.153186013048734e-07
0.51	-0.3136335916168527	-0.02468955184825689	0.7537797571368147	1.092278139325642	-0.4406343026811174	-0.204229626131627	-0.2552720848584611	0.8685682459039531	0.8685682459037969	-0.1147668263027529	-0.1578640570434817	0.1571680690107646	-0.009808691256722648	-0.6775306150236949	-0.1560704871455194	-0.5424380092202024	2.363563533042201	-0.2033057121268886	0.7548762749529899	-0.1057135683870567	2.078366707789424	2.078366707789697	0.1580211125122782	-0.09016125668389306	0.5790708548429936	0.07319930929179511	-0.1568876902495868	0.03344033380412451	-0.01252870548269812	-0.2412254968425768	0.06792463063738988	0.02846215446745534	0.160087567020788	-11.18448830841842	-13.08585773664758	4.815032907271955	-7.96945480670661	-526.1347456590902	-51.2030038695921	-22.17749984343664	0.7862262868156162	0.6235338281319985	-0.3975580568352832	-1.600535367823039	0.6877887176094147	-0.2352246641465489	1.0227742320485	-1.544276608051805	-1.544276608049565	-0.06941952648172485	0.1994033220725182	-0.5873396613550494	0.4929044394700534	-6.218921176276255e-07	-9.719484922612373e-08	3.755579635876994e-06	2.917582497276266e-07	-7.272344979195784e-07	7.076082810458101e-09	-5.072228407498089e-07
0.52	-0.3203689254113817	-0.02621900810968679	0.7483366481301565	1.115831112902499	-0.4426322380666013	-0.1966953590305009	-0.2562781196712795	0.8892721558268188	0.8892721558268326	-0.1131875726380951	-0.1587560336259432	0.1629287666984862	-0.009051344789056413	-0.6694355057554452	-0.149811087661294	-0.5460655676777375	2.346701998655571	-0.1962679439613687	0.7518722426009479	-0.09553176297482718	2.062134636474486	2.062134636474774	0.1578240659274429	-0.08823128526731601	0.5729787186023305	0.0782489600417184	-0.162035864362778	0.0343632985578084	-0.01247803943700309	-0.2440505195236023	0.06629090826491345	0.02866407434943593	0.1640592116586308	-11.90266115513954	-12.99953187048163	4.746132238041485	-7.71725568169582	-529.8332622918681	-50.9383884177388	-21.20621438309076	0.8260561515018822	0.6277383015745245	-0.3283245687235147	-1.758437249953265	0.7327059119149768	-0.398358725364906	1.02050379906113	-1.69708103639141	-1.697081036391435	0.08118446011261954	0.1778777153429179	-0.6260116798729377	0.536219470272854	-6.007691864520579e-07	1.615900409778828e-08	3.786850128311711e-06	3.223665714816111e-07	-7.106105215273133e-07	1.154024537036799e-07	-4.968074613835497e-07
0.53	-0.3270204935885383	-0.02768567563900599	0.7428608019731833	1.139205939318674	-0.444559486251683	-0.189193850903934	-0.2571835621328495	0.9098054957332052	0.9098054957332153	-0.1116107112212855	-0.1596282194738673	0.1686258747619895	-0.008244220172051389	-0.660785752751655	-0.143522288182152	-0.5489830152744696	2.327951084906126	-0.1891768327597207	0.7483403499770775	-0.08561182958405451	2.044263983745725	2.044263983745942	0.1575249912494748	-0.08619790142285888	0.5663531918758686	0.08314392680169724	-0.1670776439384992	0.03509264968069173	-0.01233984069245968	-0.2468905635126244	0.06450179439257792	0.02875837797081003	0.1678929987258076	-12.67522781870558	-12.84974709582879	4.658891136291187	-7.304122770611161	-533.4994667310305	-50.63521142339049	-20.2450938020901	0.8982082009443868	0.6295379629643106	-0.2554979645083965	-1.980346537263609	0.6975203320806674	-0.3444001866383872	0.9694730724010657	-1.872363282242659	-1.872363282253185	-0.08881526797280719	0.2180192265498269	-0.694244774120539	0.4608721376395997	-5.7239409296677e-07	1.333748596468521e-07	3.790300090731715e-06	3.502430807352219e-07	-6.867202111398355e-07	2.257429395514133e-07	-4.81804381066688e-07
0.54	-0.3335828095704274	-0.0290894377351577	0.7373593727183706	1.162383870977383	-0.4464157820031913	-0.1817304208347516	-0.25799145826785	0.9301520679340706	0.9301520679340931	-0.1100375129184914	-0.1604796813818534	0.1742540432372108	-0.00738919851569072	-0.6515850667028037	-0.1372300010277977	-0.5511821872456247	2.307323047163733	-0.1820774572464346	0.7442566311235947	-0.07602249766065797	2.024781095371998	2.024781095372145	0.157091443122654	-0.08408649727629165	0.5591908009458991	0.08782836791284529	-0.1721194235143045	0.03582200080357454	-0.01220164194771772	-0.2497306075016559	0.06271268052025079	0.02885268159218545	0.1717267857929	-13.44886705409267	-12.6998789244347	4.571758420068339	-6.940543652307438	-537.2118830215514	-50.39478228750245	-19.29683643457224	0.9362427605139934	0.6284358366170327	-0.1846694436081062	-2.133862048543171	0.7343587742426076	-0.5087239712873922	0.9543835055858964	-2.019528165384556	-2.019528165384554	0.05428977034205397	0.1934817757649378	-0.7333845205744185	0.4941143405067056	-5.359953305430677e-07	2.548635687216158e-07	3.762969892284374e-06	3.750971591373554e-07	-6.547905525023348e-07	3.383118079020107e-07	-4.617255465066065e-07
0.55	-0.3400505817571821	-0.03043034476125437	0.7318395684644907	1.185346507184391	-0.4482008936801578	-0.1743105038231228	-0.2587052010930411	0.9502958767770949	0.9502958767771782	-0.1084690617353982	-0.161309528602625	0.1798079825496872	-0.006488180042927679	-0.6418849198811422	-0.1309585868127948	-0.5526543095083877	2.284902399825817	-0.1749405956730935	0.7396157821420455	-0.06680372783302917	2.00371677015308	2.003716770153012	0.1565967435936282	-0.08188413731718182	0.5515102397670424	0.09234379601912755	-0.1769230304581559	0.03637305482241714	-0.01198355818040316	-0.2528217374651732	0.06112983105047139	0.02875895503662001	0.1753299731271141	-14.16394634943561	-12.46766155080502	4.458997136027568	-6.505197465613125	-540.9086096859904	-50.06147918593054	-18.36351401926906	0.9994889078435775	0.6254945515990236	-0.1099579891692822	-2.341528870555526	0.703453432621702	-0.4588131605412291	0.8939746531064536	-2.189380007528612	-2.18938000756111	-0.1015177220329757	0.2341807594978801	-0.7983657963087767	0.4250360544063244	-4.999861136086545e-07	3.387333998244033e-07	3.692161863835707e-06	3.878845693525212e-07	-6.197357332863321e-07	4.344474873032674e-07	-4.419522387297078e-07
